<svg xmlns="http://www.w3.org/2000/svg" viewBox="0 0 24 24" fill="none" stroke="#12a594" stroke-width="1.7" stroke-linecap="round" stroke-linejoin="round">
  <rect width="24" height="24" rx="6" fill="#e9f1f1" stroke="none"/>
  <path d="M12 5.5c-1.6-1.4-4-1.4-5.5-.3C4.6 6.3 4 8.4 4.4 11.2c.2 1.5.3 2.6.7 4 .6 2 1 3.8 1.7 5.3.5 1 .9 1.7 2 1.7 1 0 1.2-.7 1.5-1.9.3-1.2.5-2.6 1.7-2.6s1.4 1.4 1.7 2.6c.3 1.2.5 1.9 1.5 1.9 1.1 0 1.5-.7 2-1.7.7-1.5 1.1-3.3 1.7-5.3.4-1.4.5-2.5.7-4 .4-2.8-.2-4.9-2.1-6C16 4.1 13.6 4.1 12 5.5Z"/>
</svg>
